ply
format ascii 1.0
comment Created by Blender 3.1.0 - www.blender.org
element vertex 217
property float x
property float y
property float z
property float nx
property float ny
property float nz
property float s
property float t
element face 348
property list uchar uint vertex_indices
end_header
0.236357 0.273895 -0.200000 0.520402 -0.000000 -0.853921 0.993791 0.213087
0.236357 0.196255 0.200000 0.707443 -0.000000 0.706771 0.698791 0.155337
0.236357 0.196255 -0.200000 0.707106 0.000000 -0.707107 0.993810 0.155811
-0.226016 0.273895 0.200000 -0.520415 0.001671 0.853912 0.993659 0.212962
-0.226016 0.196255 -0.200000 -0.699924 0.000000 -0.714217 0.698609 0.155390
-0.226016 0.196255 0.200000 -0.709496 0.000000 0.704709 0.993715 0.155682
0.147170 0.196388 0.200000 -0.000001 -0.000001 1.000000 0.288047 0.155867
0.236357 0.273895 0.200000 0.520398 0.000000 0.853924 0.350421 0.212614
0.147170 0.414869 0.200000 -0.000001 -0.000000 1.000000 0.287992 0.317045
-0.000247 0.196440 0.200000 0.001381 0.000893 0.999999 0.176480 0.155819
-0.000247 0.517210 0.200000 -0.000000 -0.000000 1.000000 0.176399 0.392458
0.147170 0.196388 -0.200000 -0.301626 -0.301520 -0.904493 0.423281 0.155217
0.236357 0.273895 -0.200000 0.520402 -0.000000 -0.853921 0.357425 0.212335
0.236357 0.196255 -0.200000 0.707106 0.000000 -0.707107 0.357482 0.155054
-0.000247 0.196440 -0.200000 0.000006 -0.707025 -0.707188 0.524754 0.155748
0.147170 0.414869 -0.200000 0.000001 0.000000 -1.000000 0.423123 0.316406
-0.141472 0.414869 0.200000 -0.000012 0.001153 0.999999 0.074697 0.316562
-0.226016 0.273895 0.200000 -0.520415 0.001671 0.853912 0.008984 0.212245
-0.142635 0.196168 0.200620 0.316250 -0.000236 0.948676 0.074752 0.155383
-0.141472 0.414869 -0.200000 0.000000 0.000000 -1.000000 0.636075 0.316616
-0.141472 0.196388 -0.200000 0.301632 -0.301520 -0.904491 0.636235 0.155426
-0.226016 0.273895 -0.200000 -0.516905 0.000000 -0.856043 0.698553 0.212671
-0.256627 0.275672 -0.225142 -0.805919 -0.043227 -0.590446 0.673083 0.481058
-0.151443 0.405338 -0.225142 0.406313 -0.393259 -0.824777 0.533717 0.466940
-0.241320 0.258230 -0.225142 0.060884 -0.810679 -0.582317 0.677665 0.462641
0.267788 0.275672 -0.225142 0.808258 -0.040710 -0.587419 0.038641 0.480292
0.157262 0.405338 -0.225142 -0.403106 -0.389593 -0.828084 0.181580 0.465190
0.165837 0.422780 -0.225142 0.527574 0.545749 -0.651017 0.187396 0.478260
-0.160320 0.422780 -0.225142 -0.541243 0.528201 -0.654262 0.527904 0.479943
-0.073371 0.461904 -0.225142 0.278441 -0.619170 -0.734234 0.452080 0.455904
-0.077834 0.479346 -0.225142 -0.598850 0.576491 -0.555911 0.443313 0.473541
-0.000402 0.517119 -0.275340 -0.003714 -0.393026 -0.919520 0.372357 0.431588
0.082548 0.478141 -0.225142 0.587539 0.589031 -0.554834 0.272510 0.471478
-0.000402 0.517119 -0.275340 -0.003714 -0.393026 -0.919520 0.348491 0.428318
-0.000740 0.530622 -0.275340 -0.016503 0.720092 -0.693683 0.355957 0.447108
0.078430 0.460699 -0.225142 -0.270515 -0.619222 -0.737147 0.263752 0.453963
0.165836 0.422780 0.228682 0.527754 0.546178 0.650511 0.187055 0.860291
0.078430 0.460699 0.228682 -0.264340 -0.648960 0.713425 0.262035 0.887008
0.157262 0.405338 0.228682 -0.416626 -0.403103 0.814820 0.181205 0.872761
0.082548 0.478141 0.228682 0.628831 0.577138 0.521040 0.271709 0.868395
-0.000402 0.519573 0.291324 -0.008272 -0.392265 0.919815 0.346214 0.918609
-0.077834 0.481369 0.228681 -0.642144 0.568074 0.514726 0.446577 0.868322
-0.000402 0.519573 0.291324 -0.008272 -0.392265 0.919815 0.377397 0.919731
-0.000740 0.537015 0.291324 -0.013131 0.716928 0.697024 0.369781 0.906146
-0.160320 0.422780 0.228681 -0.544306 0.524701 0.654538 0.530574 0.859507
-0.073371 0.463927 0.228681 0.260461 -0.643141 0.720090 0.456626 0.887003
0.267788 0.275672 0.228682 0.808346 -0.040269 0.587328 0.039689 0.858031
0.251824 0.258230 0.228682 -0.035925 -0.801558 0.596837 0.036390 0.876373
-0.256627 0.275672 0.228681 -0.806006 -0.042798 0.590358 0.674246 0.856413
-0.151443 0.405338 0.228681 0.425056 -0.404436 0.809789 0.536580 0.871802
-0.159066 0.411505 0.005363 -0.730620 0.682784 -0.000599 0.528025 0.673335
-0.254635 0.265872 0.005363 -0.994865 -0.101211 -0.000087 0.667009 0.672475
0.164593 0.411505 0.005363 0.692590 0.721331 -0.000625 0.188501 0.672856
0.265763 0.265872 0.005363 0.995086 -0.099010 -0.000091 0.045874 0.672834
-0.000708 0.519403 0.012707 0.016433 0.999833 -0.007985 0.369732 0.681389
-0.000740 0.530622 -0.275340 -0.016503 0.720092 -0.693683 0.366400 0.447570
-0.077212 0.472542 0.005363 -0.557499 0.830175 -0.002103 0.445811 0.674184
0.081943 0.463115 0.005363 0.549254 0.835656 0.000399 0.271334 0.673194
-0.000708 0.519403 0.012707 0.016433 0.999833 -0.007985 0.353082 0.679969
0.251824 0.258230 -0.225142 -0.029535 -0.801306 -0.597525 0.018978 0.480721
0.251824 0.258230 0.228682 -0.035925 -0.801558 0.596837 0.020170 0.857722
0.249922 0.249599 0.005363 -0.084172 -0.996451 -0.000494 0.026925 0.672874
-0.241320 0.258230 0.228681 0.063460 -0.810987 0.581612 0.693277 0.856012
-0.241320 0.258230 -0.225142 0.060884 -0.810679 -0.582317 0.692268 0.481353
-0.239445 0.249599 0.005363 0.151408 -0.988471 -0.000353 0.685465 0.672406
0.240250 0.290169 -0.203090 -0.002458 0.467483 -0.883998 0.757272 0.933309
-0.231678 0.292514 -0.196035 -0.003314 0.861387 -0.507938 0.750593 0.547307
0.240250 0.295003 -0.196035 -0.004351 0.824945 -0.565196 0.749191 0.933308
-0.231678 0.288361 -0.203090 -0.001898 0.495443 -0.868639 0.758325 0.547309
0.240250 0.265435 -0.203090 0.000055 -0.481472 -0.876462 0.780638 0.933279
-0.231678 0.265381 -0.203090 0.000075 -0.480641 -0.876917 0.780035 0.547282
-0.220517 0.286849 0.169920 0.844153 -0.533810 0.049520 0.707064 0.807184
-0.220517 0.286849 -0.177673 0.841973 -0.536661 -0.055462 0.706751 0.521137
-0.218777 0.294865 -0.001125 0.909695 -0.415277 0.000640 0.700974 0.667023
0.218997 0.291433 -0.177673 -0.789252 -0.602856 -0.116815 0.004456 0.520836
0.218997 0.291433 0.169920 -0.791543 -0.603646 0.095248 0.005820 0.808650
0.217232 0.299448 -0.001125 -0.836280 -0.548302 0.000853 0.011094 0.667550
-0.220517 0.286849 0.169920 0.844153 -0.533810 0.049520 0.673926 0.923447
-0.140270 0.398501 0.169920 0.697958 -0.685617 0.206844 0.538410 0.917578
0.218997 0.291433 0.169920 -0.791543 -0.603646 0.095248 0.041691 0.926154
-0.067828 0.455067 0.169920 0.566347 -0.805402 0.174865 0.477289 0.925904
-0.000121 0.505295 0.217900 0.002729 -0.981888 0.189445 0.421877 0.942009
-0.000121 0.505295 0.217900 0.002729 -0.981888 0.189445 0.302409 0.944176
0.073027 0.453862 0.169920 -0.559437 -0.815846 0.146376 0.241908 0.927021
0.146174 0.398501 0.169920 -0.698334 -0.686912 0.201198 0.179945 0.919049
0.146174 0.398501 -0.177673 -0.689006 -0.680937 -0.248184 0.181642 0.425938
0.073027 0.453862 -0.177673 -0.554704 -0.812311 -0.180150 0.248778 0.418490
-0.000121 0.505295 -0.216121 0.012053 -0.979886 -0.199196 0.321904 0.394780
-0.000121 0.505295 -0.216121 0.012053 -0.979886 -0.199196 0.406337 0.404718
-0.067828 0.455067 -0.177673 0.568747 -0.802134 -0.181957 0.466980 0.420984
-0.140270 0.398501 -0.177673 0.685470 -0.684213 -0.248966 0.533664 0.427986
0.218997 0.291433 -0.177673 -0.789252 -0.602856 -0.116815 0.039580 0.418940
-0.220517 0.286849 -0.177673 0.841973 -0.536661 -0.055462 0.673116 0.420633
-0.158633 0.572267 0.109274 -0.842157 -0.000000 0.539232 0.751675 0.353994
-0.158413 0.381357 0.046472 -0.999994 0.000000 -0.003498 0.702126 0.217192
-0.158633 0.381328 0.109274 -0.865035 -0.000000 0.501711 0.751675 0.216894
0.071517 0.572267 0.114654 0.846450 -0.000000 0.532469 0.928234 0.353994
0.071737 0.464194 0.051852 0.999994 -0.000000 0.003498 0.976399 0.279616
0.071737 0.627783 0.051852 0.999994 -0.000000 0.003498 0.976400 0.396571
-0.158413 0.381357 0.046472 -0.999994 0.000000 -0.003498 0.701960 0.216994
-0.158184 0.572267 -0.019083 -0.829450 0.000000 -0.558581 0.751739 0.353515
-0.158184 0.381328 -0.019083 -0.858108 0.000001 -0.513469 0.751733 0.216971
0.071737 0.464194 0.051852 0.999994 -0.000000 0.003498 0.976293 0.279872
0.071966 0.572267 -0.013703 0.852600 0.000000 -0.522564 0.928185 0.354336
0.071737 0.627783 0.051852 0.999994 -0.000000 0.003498 0.976300 0.395653
0.084146 0.618435 0.051575 0.999995 -0.000159 0.003074 0.933113 0.442474
0.083903 0.564133 0.129846 0.570691 0.099104 0.815162 0.923513 0.378951
0.083903 0.552915 0.121217 0.678254 -0.447591 0.582782 0.933009 0.377990
-0.170823 0.618435 0.046608 -0.999995 -0.000080 -0.003074 0.737914 0.444444
-0.171067 0.560443 0.124755 -0.588934 0.094190 0.802673 0.747144 0.380291
-0.170823 0.631446 0.046281 -0.570045 0.821527 0.011940 0.746268 0.452653
0.084146 0.618435 0.051575 0.999995 -0.000159 0.003074 0.933314 0.457511
0.084400 0.561862 -0.029118 0.589142 0.122120 -0.798748 0.923963 0.522435
0.084146 0.631446 0.052241 0.569674 0.821793 0.011326 0.924860 0.449230
-0.170823 0.618435 0.046608 -0.999995 -0.000080 -0.003074 0.737925 0.459426
-0.170569 0.565841 -0.034053 -0.570918 0.128428 -0.810900 0.747583 0.523611
-0.170569 0.554026 -0.025751 -0.673582 -0.424516 -0.605039 0.737914 0.524724
-0.043339 0.626036 0.049261 -0.000064 0.999893 0.014648 0.835563 0.450905
-0.043084 0.558442 -0.031586 0.020043 0.117743 -0.992842 0.835902 0.525198
-0.043582 0.556878 0.127300 -0.020043 0.082003 0.996431 0.835202 0.377403
0.084400 0.550711 -0.021639 0.679285 -0.409252 -0.609167 0.924042 0.533867
-0.170569 0.554026 -0.025751 -0.673582 -0.424516 -0.605039 0.748138 0.535020
-0.043084 0.546959 -0.023695 0.006234 -0.566318 -0.824163 0.836205 0.536750
-0.171067 0.549841 0.116976 -0.684074 -0.431956 0.587755 0.747053 0.368861
0.083903 0.552915 0.121217 0.678254 -0.447591 0.582782 0.922956 0.367543
-0.043582 0.545968 0.119097 -0.006372 -0.600969 0.799247 0.834891 0.365853
-0.167161 0.559524 0.077575 -0.576163 0.587121 0.568616 0.385357 0.375058
-0.155280 0.556841 0.013028 0.000000 0.678903 -0.734228 0.316485 0.386157
-0.167161 0.556841 0.013028 -0.579417 0.553287 -0.598456 0.317609 0.371258
-0.155280 0.489820 0.015490 0.000000 -0.719950 -0.694026 0.304151 0.298037
-0.167161 0.489820 0.015490 -0.581077 -0.585851 -0.564914 0.318476 0.298207
-0.167161 0.489816 0.076898 -0.579349 -0.579143 0.573540 0.386292 0.296169
-0.155280 0.559524 0.077575 0.000000 0.718266 0.695768 0.400764 0.375241
-0.155280 0.489816 0.076898 0.000000 -0.710556 0.703641 0.385862 0.279925
-0.161955 0.502566 0.064933 -0.577450 0.555149 -0.598633 0.370845 0.313253
-0.161955 0.546553 0.023049 -0.577681 -0.553725 0.599728 0.333657 0.356756
-0.161955 0.501013 0.024723 -0.577251 0.598736 0.555244 0.333910 0.313353
-0.167066 0.502566 0.064933 -0.902393 0.293013 -0.315961 0.373931 0.309400
-0.167066 0.501013 0.024723 -0.902426 0.315574 0.293326 0.330595 0.310139
-0.167066 0.548283 0.063253 -0.903334 -0.315916 -0.290146 0.373306 0.361530
-0.167066 0.546553 0.023049 -0.901443 -0.293332 0.318366 0.330019 0.359650
-0.161955 0.548283 0.063253 -0.577021 -0.600070 -0.554042 0.370581 0.357419
-0.002079 0.499850 -0.015434 0.023369 0.000000 -0.999727 0.873333 0.306950
-0.002079 0.561173 -0.015434 0.023369 0.000000 -0.999727 0.873335 0.353509
0.000117 0.499850 0.113123 -0.022895 -0.000000 0.999738 0.873461 0.306963
0.000117 0.561173 0.113123 -0.022801 -0.000000 0.999740 0.873461 0.353994
0.029378 0.332822 -0.194213 0.702646 -0.711538 -0.001632 0.317740 0.283286
-0.233957 0.196255 -0.001752 -0.999800 0.000000 -0.020016 0.846162 0.155536
-0.226016 -0.000009 -0.200000 -0.564630 -0.579485 -0.587700 0.698752 0.010594
-0.233957 -0.000009 -0.001752 -0.711414 -0.702629 -0.014243 0.846305 0.010739
0.147170 -0.000009 -0.200000 -0.577350 -0.577350 -0.577350 0.423423 0.010321
-0.141472 -0.000009 -0.200000 0.577350 -0.577350 -0.577350 0.636378 0.010532
-0.141472 0.196388 -0.200000 0.301632 -0.301520 -0.904491 0.722551 0.665886
-0.141472 -0.000009 -0.168319 0.588646 -0.579686 0.563436 0.741981 0.561056
-0.141472 -0.000009 -0.200000 0.577350 -0.577350 -0.577350 0.722451 0.561070
0.147170 0.196388 -0.200000 -0.301626 -0.301520 -0.904493 0.722698 0.819932
-0.000247 0.196440 -0.168319 0.000008 -1.000000 -0.000000 0.742153 0.741243
-0.000247 0.196440 -0.200000 0.000006 -0.707025 -0.707188 0.722623 0.741257
-0.141472 0.196388 -0.168319 0.594142 -0.569041 0.568496 0.742081 0.665872
0.147170 -0.000009 -0.168319 -0.577350 -0.577350 0.577350 0.995790 0.929639
0.196333 0.196388 -0.168319 -0.735831 -0.000000 0.677165 0.921495 0.911093
0.147170 0.196388 -0.168319 -0.577486 -0.577282 0.577282 0.921580 0.929380
-0.193933 0.196388 -0.005796 0.999126 0.026853 0.032021 0.921717 0.614286
-0.180485 -0.000009 -0.166611 0.317519 -0.891989 0.321772 0.993823 0.557756
-0.180485 0.196388 -0.166611 0.692942 -0.000000 0.720993 0.921529 0.558185
-0.141472 0.196388 -0.168319 0.594142 -0.569041 0.568496 0.921558 0.541002
-0.141472 -0.000009 -0.168319 0.588646 -0.579686 0.563436 0.993853 0.540573
-0.154702 0.218575 -0.204078 -0.578793 0.575613 -0.577641 0.807983 0.561589
0.162131 0.196440 -0.204078 0.577394 -0.577296 -0.577361 0.839356 0.917889
-0.154702 0.196388 -0.204078 -0.577307 -0.577402 -0.577342 0.836815 0.561431
0.162131 0.220320 -0.204077 0.575903 0.579085 -0.577058 0.808322 0.918059
-0.154702 0.218575 -0.194547 -0.578794 0.575612 0.577640 0.795595 0.561597
0.162131 0.220320 -0.194547 0.575901 0.579084 0.577062 0.795934 0.918068
0.162131 0.196440 -0.194547 0.577393 -0.577299 0.577359 0.839434 0.928612
-0.154702 0.218575 -0.194547 -0.578794 0.575612 0.577640 0.807904 0.550866
-0.154702 0.196388 -0.194547 -0.577308 -0.577402 0.577341 0.849202 0.561364
0.240250 0.260952 -0.196035 0.000097 -0.844004 -0.536337 0.788537 0.933269
-0.231678 0.260878 -0.196035 0.000132 -0.842920 -0.538038 0.787944 0.547272
0.147170 -0.000009 -0.168319 -0.577350 -0.577350 0.577350 0.742328 0.924733
0.147170 -0.000009 -0.200000 -0.577350 -0.577350 -0.577350 0.722798 0.924746
-0.152037 -0.007248 -0.202372 -0.705859 -0.003560 -0.708344 0.870411 0.569994
-0.137730 0.196160 -0.202372 0.707069 -0.000213 -0.707144 0.901784 0.926295
-0.137792 -0.007255 -0.202372 0.707144 -0.000213 -0.707070 0.899243 0.569836
0.145035 0.196168 -0.196252 -0.999987 -0.005044 -0.000000 0.858362 0.926474
0.145035 0.196168 -0.202372 -0.708340 -0.003573 -0.705862 0.870750 0.926465
0.160306 -0.007255 -0.196252 1.000000 -0.000302 0.000002 0.911630 0.569770
0.236357 -0.000009 0.000000 0.716034 -0.698030 0.007100 0.846350 0.011287
0.236357 -0.000009 -0.200000 0.577350 -0.577350 -0.577350 0.993860 0.011524
0.196333 -0.000009 -0.168319 -0.299084 -0.907595 0.294651 0.995705 0.911353
0.182885 0.196388 -0.006650 -0.997303 -0.071934 -0.014575 0.922170 0.856637
-0.144770 0.196388 0.166567 0.577486 -0.577282 -0.577282 0.742228 0.819918
0.202712 -0.000009 0.004044 -0.661989 -0.749432 -0.011083 0.994725 0.613614
0.211114 0.266031 0.194500 -1.000000 -0.000225 0.000000 0.914171 0.926229
-0.186722 -0.000009 0.004898 0.717284 -0.696447 0.021573 0.995824 0.856311
-0.154702 0.196388 -0.194547 -0.577308 -0.577402 0.577341 0.836737 0.550708
0.236357 0.273895 0.200000 0.520398 0.000000 0.853924 0.698771 0.212614
0.236357 0.196255 0.200000 0.707443 -0.000000 0.706771 0.350441 0.155337
-0.000247 0.517210 -0.200000 0.000000 0.000000 -1.000000 0.524522 0.392405
-0.226016 0.196255 0.200000 -0.709496 0.000000 0.704709 0.009003 0.154968
0.251824 0.258230 -0.225142 -0.029535 -0.801306 -0.597525 0.034688 0.461229
-0.000740 0.537015 0.291324 -0.013131 0.716928 0.697024 0.357368 0.907979
-0.241320 0.258230 0.228681 0.063460 -0.810987 0.581612 0.678335 0.874030
-0.158413 0.627783 0.046472 -0.999994 0.000000 -0.003500 0.702126 0.395561
0.071517 0.464165 0.114654 0.811760 -0.000000 0.583992 0.928234 0.279595
-0.158413 0.627783 0.046472 -0.999994 0.000000 -0.003500 0.701969 0.395667
0.071966 0.464165 -0.013704 0.819615 0.000000 -0.572914 0.928181 0.279854
-0.171067 0.549841 0.116976 -0.684074 -0.431956 0.587755 0.738482 0.378996
0.084400 0.550711 -0.021639 0.679285 -0.409252 -0.609167 0.932781 0.523892
-0.155280 0.559524 0.077575 0.000000 0.718266 0.695768 0.384508 0.391288
-0.155280 0.556841 0.013028 0.000000 0.678903 -0.734228 0.303283 0.371088
-0.155280 0.489816 0.076898 0.000000 -0.710556 0.703641 0.401699 0.296352
0.236357 -0.000009 -0.200000 0.577350 -0.577350 -0.577350 0.357624 0.010257
0.162131 0.220320 -0.194547 0.575901 0.579084 0.577062 0.808400 0.928783
0.162131 0.196440 -0.194547 0.577393 -0.577299 0.577359 0.851742 0.917823
0.146061 -0.007248 -0.196252 -0.999987 -0.005044 -0.000002 0.858023 0.570003
0.236357 0.196255 0.000000 1.000000 -0.000000 0.000000 0.846300 0.155574
-0.141472 -0.000009 -0.200000 0.577350 -0.577350 -0.577350 0.636307 0.010532
3 0 1 2
3 3 4 5
3 6 7 8
3 9 8 10
3 11 12 13
3 14 15 11
3 16 9 10
3 17 18 16
3 19 14 20
3 21 20 4
3 22 23 24
3 25 26 27
3 28 29 23
3 30 31 29
3 32 33 34
3 27 35 32
3 36 37 38
3 39 40 37
3 41 42 43
3 44 45 41
3 46 38 47
3 48 49 44
3 22 50 28
3 48 50 51
3 52 25 27
3 52 46 53
3 30 54 55
3 41 54 56
3 28 56 30
3 44 56 50
3 57 27 32
3 57 36 52
3 58 32 34
3 58 39 57
3 53 59 25
3 53 60 61
3 51 62 48
3 51 63 64
3 65 66 67
3 68 69 70
3 64 71 62
3 64 72 73
3 61 74 59
3 61 75 76
3 49 77 78
3 38 79 47
3 45 78 80
3 45 81 42
3 37 82 83
3 37 84 38
3 35 85 86
3 35 87 33
3 29 88 89
3 29 90 23
3 26 91 85
3 23 92 24
3 93 94 95
3 96 97 98
3 99 100 101
3 102 103 104
3 105 106 107
3 108 109 110
3 111 112 113
3 114 115 116
3 112 117 113
3 115 117 118
3 117 106 113
3 117 109 119
3 120 118 112
3 121 118 122
3 123 119 109
3 124 119 125
3 126 127 128
3 128 129 130
3 131 132 126
3 130 133 131
3 134 135 136
3 137 136 138
3 139 134 137
3 138 135 140
3 140 141 139
3 128 139 126
3 128 138 140
3 126 137 131
3 130 137 138
3 100 142 101
3 103 142 143
3 144 93 95
3 144 96 145
3 130 137 138
3 131 139 137
3 128 138 140
3 128 139 126
3 140 141 139
3 140 136 135
3 137 141 134
3 137 136 138
3 134 135 136
3 131 146 133
3 131 132 126
3 128 129 130
3 126 127 128
3 68 69 70
3 65 66 67
3 147 148 149
3 13 150 11
3 4 151 148
3 152 153 154
3 155 156 157
3 157 158 152
3 159 160 161
3 162 163 164
3 165 163 166
3 167 168 169
3 170 171 172
3 170 173 168
3 169 174 167
3 168 175 169
3 70 176 177
3 178 155 179
3 168 175 169
3 167 172 170
3 180 181 182
3 180 181 182
3 180 183 184
3 181 185 182
3 180 181 182
3 180 183 184
3 181 185 182
3 181 185 182
3 180 183 184
3 180 181 182
3 2 186 187
3 188 189 160
3 149 4 148
3 13 150 11
3 4 151 148
3 152 153 154
3 157 190 156
3 157 158 152
3 159 160 161
3 191 164 162
3 165 163 166
3 167 168 169
3 167 172 170
3 170 173 168
3 169 174 167
3 168 175 169
3 70 176 177
3 179 190 155
3 168 175 169
3 167 172 170
3 180 181 182
3 180 181 182
3 180 183 184
3 181 185 182
3 180 181 182
3 180 183 184
3 182 192 185
3 182 192 185
3 180 183 184
3 180 181 182
3 2 186 187
3 160 193 189
3 173 171 194
3 150 187 188
3 193 188 149
3 173 174 194
3 0 195 1
3 3 21 4
3 6 196 7
3 9 6 8
3 11 15 12
3 14 197 15
3 16 18 9
3 17 198 18
3 19 197 14
3 21 19 20
3 22 28 23
3 25 199 26
3 28 30 29
3 30 55 31
3 32 35 33
3 27 26 35
3 36 39 37
3 39 200 40
3 41 45 42
3 44 49 45
3 46 36 38
3 48 201 49
3 22 51 50
3 48 44 50
3 52 53 25
3 52 36 46
3 30 56 54
3 41 43 54
3 28 50 56
3 44 41 56
3 57 52 27
3 57 39 36
3 58 57 32
3 58 200 39
3 53 61 59
3 53 46 60
3 51 64 62
3 51 22 63
3 65 68 66
3 68 65 69
3 64 73 71
3 64 63 72
3 61 76 74
3 61 60 75
3 49 201 77
3 38 84 79
3 45 49 78
3 45 80 81
3 37 40 82
3 37 83 84
3 35 26 85
3 35 86 87
3 29 31 88
3 29 89 90
3 26 199 91
3 23 90 92
3 93 202 94
3 96 203 97
3 99 204 100
3 102 205 103
3 105 113 106
3 108 206 109
3 111 207 112
3 114 110 115
3 112 118 117
3 115 110 117
3 117 119 106
3 117 110 109
3 120 122 118
3 121 115 118
3 123 125 119
3 124 106 119
3 126 208 127
3 128 209 129
3 131 210 132
3 130 146 133
3 134 141 135
3 137 134 136
3 139 141 134
3 138 136 135
3 140 135 141
3 128 140 139
3 128 130 138
3 126 139 137
3 130 131 137
3 100 143 142
3 103 205 142
3 144 145 93
3 144 203 96
3 130 131 137
3 131 126 139
3 128 130 138
3 128 140 139
3 140 135 141
3 140 138 136
3 137 139 141
3 137 134 136
3 134 141 135
3 131 130 146
3 131 210 132
3 128 209 129
3 126 208 127
3 68 65 69
3 65 68 66
3 147 4 148
3 13 211 150
3 4 20 151
3 152 158 153
3 155 190 156
3 157 156 158
3 159 188 160
3 162 191 163
3 165 164 163
3 167 170 168
3 170 167 171
3 170 212 173
3 169 194 174
3 168 213 175
3 70 69 176
3 178 190 155
3 168 213 175
3 167 171 172
3 180 184 181
3 180 184 181
3 180 214 183
3 181 192 185
3 180 184 181
3 180 214 183
3 181 192 185
3 181 192 185
3 180 214 183
3 180 184 181
3 2 215 186
3 188 193 189
3 149 147 4
3 13 211 150
3 4 20 151
3 152 158 153
3 157 155 190
3 157 156 158
3 159 188 160
3 191 163 164
3 165 164 163
3 167 170 168
3 167 171 172
3 170 212 173
3 169 194 174
3 168 213 175
3 70 69 176
3 179 178 190
3 168 213 175
3 167 171 172
3 180 184 181
3 180 184 181
3 180 214 183
3 181 192 185
3 180 184 181
3 180 214 183
3 182 181 192
3 182 181 192
3 180 214 183
3 180 184 181
3 2 215 186
3 160 188 193
3 173 212 171
3 148 216 163
3 216 166 163
3 163 193 149
3 193 188 149
3 187 149 188
3 149 148 163
3 178 150 188
3 188 178 150
3 187 149 188
3 149 148 163
3 193 149 163
3 148 154 163
3 154 166 163
3 188 150 187
3 173 172 174
