ply
format ascii 1.0
comment Created by Blender 3.1.0 - www.blender.org
element vertex 676
property float x
property float y
property float z
element face 1348
property list uchar uint vertex_indices
end_header
0.710688 0.052146 -0.559200
0.818162 0.052146 -0.559200
0.764425 0.052146 -0.652275
0.871899 0.052146 -0.466124
0.764425 0.052146 -0.466124
0.549477 0.052146 -0.652275
0.656951 0.052146 -0.652275
0.603214 0.052146 -0.745351
0.710688 0.052146 -0.745351
0.603214 0.052146 -0.559200
0.388265 0.052146 -0.745351
0.495740 0.052146 -0.745351
0.442003 0.052146 -0.838426
0.549477 0.052146 -0.838426
0.442003 0.052146 -0.652275
0.227054 0.052146 -0.838426
0.334528 0.052146 -0.838426
0.280791 0.052146 -0.931502
0.388265 0.052146 -0.931502
0.280791 0.052146 -0.745351
0.065843 0.052146 -0.931502
0.173317 0.052146 -0.931502
0.119580 0.052146 -1.024577
0.227054 0.052146 -1.024577
0.119580 0.052146 -0.838426
0.012106 0.052146 -1.024577
-0.041632 0.052146 -0.931502
-0.095369 0.052146 -1.024577
0.870072 0.052146 -0.279880
0.977547 0.052146 -0.279880
0.925637 0.052146 -0.373049
0.923810 0.052146 -0.186805
0.708861 0.052146 -0.372956
0.816335 0.052146 -0.372956
0.762598 0.052146 -0.279880
0.547650 0.052146 -0.466031
0.655124 0.052146 -0.466031
0.601387 0.052146 -0.372956
0.386438 0.052146 -0.559107
0.493913 0.052146 -0.559107
0.440176 0.052146 -0.466031
0.225227 0.052146 -0.652182
0.332701 0.052146 -0.652182
0.278964 0.052146 -0.559107
0.064016 0.052146 -0.745257
0.171490 0.052146 -0.745257
0.117753 0.052146 -0.652182
-0.097196 0.052146 -0.838333
0.010279 0.052146 -0.838333
-0.043459 0.052146 -0.745257
-0.258407 0.052146 -0.931408
-0.150933 0.052146 -0.931408
-0.204670 0.052146 -1.024484
-0.204670 0.052146 -0.838333
0.868245 0.052146 -0.093636
0.975720 0.052146 -0.093636
0.921983 0.052146 -0.000561
0.707034 0.052146 -0.186712
0.814508 0.052146 -0.186712
0.760771 0.052146 -0.093636
0.545823 0.052146 -0.279787
0.653297 0.052146 -0.279787
0.599560 0.052146 -0.186712
0.384611 0.052146 -0.372863
0.492086 0.052146 -0.372863
0.438349 0.052146 -0.279787
0.223400 0.052146 -0.465938
0.330874 0.052146 -0.465938
0.277137 0.052146 -0.372863
0.062189 0.052146 -0.559014
0.169663 0.052146 -0.559014
0.115926 0.052146 -0.465938
-0.099023 0.052146 -0.652089
0.008452 0.052146 -0.652089
-0.045286 0.052146 -0.559014
-0.260234 0.052146 -0.745165
-0.152760 0.052146 -0.745165
-0.206497 0.052146 -0.652089
-0.421445 0.052146 -0.838240
-0.313971 0.052146 -0.838240
-0.367708 0.052146 -0.931315
-0.367708 0.052146 -0.745165
0.866418 0.052146 0.092608
0.973893 0.052146 0.092608
0.920155 0.052146 0.185683
0.705207 0.052146 -0.000468
0.812681 0.052146 -0.000468
0.758944 0.052146 0.092608
0.543996 0.052146 -0.093543
0.651470 0.052146 -0.093543
0.597733 0.052146 -0.000468
0.382784 0.052146 -0.186619
0.490259 0.052146 -0.186619
0.436521 0.052146 -0.093543
0.221573 0.052146 -0.279694
0.329047 0.052146 -0.279694
0.275310 0.052146 -0.186619
0.060362 0.052146 -0.372770
0.167836 0.052146 -0.372770
0.114099 0.052146 -0.279694
-0.100850 0.052146 -0.465845
0.006625 0.052146 -0.465845
-0.047113 0.052146 -0.372770
-0.262061 0.052146 -0.558920
-0.154587 0.052146 -0.558920
-0.208324 0.052146 -0.465845
-0.423272 0.052146 -0.651996
-0.315798 0.052146 -0.651996
-0.369535 0.052146 -0.558920
-0.584484 0.052146 -0.745071
-0.477010 0.052146 -0.745071
-0.530747 0.052146 -0.838147
-0.530747 0.052146 -0.651996
0.864591 0.052146 0.278852
0.972066 0.052146 0.278852
0.918328 0.052146 0.371927
0.703380 0.052146 0.185776
0.810854 0.052146 0.185776
0.757117 0.052146 0.278852
0.542169 0.052146 0.092701
0.649643 0.052146 0.092701
0.595906 0.052146 0.185776
0.380957 0.052146 -0.000375
0.488431 0.052146 -0.000375
0.434694 0.052146 0.092701
0.219746 0.052146 -0.093450
0.327220 0.052146 -0.093450
0.273483 0.052146 -0.000375
0.058535 0.052146 -0.186526
0.166009 0.052146 -0.186526
0.112272 0.052146 -0.093450
-0.102677 0.052146 -0.279601
0.004797 0.052146 -0.279601
-0.048940 0.052146 -0.186526
-0.263888 0.052146 -0.372676
-0.156414 0.052146 -0.372676
-0.210151 0.052146 -0.279601
-0.425099 0.052146 -0.465752
-0.317625 0.052146 -0.465752
-0.371362 0.052146 -0.372676
-0.586311 0.052146 -0.558827
-0.478837 0.052146 -0.558827
-0.532574 0.052146 -0.465752
-0.747522 0.052146 -0.651903
-0.640048 0.052146 -0.651903
-0.693785 0.052146 -0.744978
-0.693785 0.052146 -0.558827
0.701553 0.052146 0.372020
0.809027 0.052146 0.372020
0.862764 0.052146 0.465096
0.755290 0.052146 0.465096
0.540341 0.052146 0.278945
0.647816 0.052146 0.278945
0.594079 0.052146 0.372020
0.379130 0.052146 0.185869
0.486604 0.052146 0.185869
0.432867 0.052146 0.278945
0.217919 0.052146 0.092794
0.325393 0.052146 0.092794
0.271656 0.052146 0.185869
0.056707 0.052146 -0.000282
0.164182 0.052146 -0.000282
0.110445 0.052146 0.092794
-0.104504 0.052146 -0.093357
0.002970 0.052146 -0.093357
-0.050767 0.052146 -0.000282
-0.265715 0.052146 -0.186432
-0.158241 0.052146 -0.186432
-0.211978 0.052146 -0.093357
-0.426927 0.052146 -0.279508
-0.319452 0.052146 -0.279508
-0.373189 0.052146 -0.186432
-0.588138 0.052146 -0.372583
-0.480664 0.052146 -0.372583
-0.534401 0.052146 -0.279508
-0.749349 0.052146 -0.465659
-0.641875 0.052146 -0.465659
-0.695612 0.052146 -0.372583
-0.803086 0.052146 -0.558734
-0.856823 0.052146 -0.465659
0.699726 0.052146 0.558264
0.807200 0.052146 0.558264
0.753463 0.052146 0.651340
0.538514 0.052146 0.465189
0.645989 0.052146 0.465189
0.592252 0.052146 0.558264
0.377303 0.052146 0.372113
0.484777 0.052146 0.372113
0.431040 0.052146 0.465189
0.216092 0.052146 0.279038
0.323566 0.052146 0.279038
0.269829 0.052146 0.372113
0.054880 0.052146 0.185962
0.162355 0.052146 0.185962
0.108618 0.052146 0.279038
-0.106331 0.052146 0.092887
0.001143 0.052146 0.092887
-0.052594 0.052146 0.185962
-0.267542 0.052146 -0.000188
-0.160068 0.052146 -0.000188
-0.213805 0.052146 0.092887
-0.428753 0.052146 -0.093264
-0.321279 0.052146 -0.093264
-0.375016 0.052146 -0.000188
-0.589965 0.052146 -0.186339
-0.482491 0.052146 -0.186339
-0.536228 0.052146 -0.093264
-0.751176 0.052146 -0.279415
-0.643702 0.052146 -0.279415
-0.697439 0.052146 -0.186339
-0.912388 0.052146 -0.372490
-0.804913 0.052146 -0.372490
-0.858651 0.052146 -0.279415
0.536687 0.052146 0.651433
0.644162 0.052146 0.651433
0.697899 0.052146 0.744508
0.590425 0.052146 0.744508
0.375476 0.052146 0.558357
0.482950 0.052146 0.558357
0.429213 0.052146 0.651433
0.214265 0.052146 0.465282
0.321739 0.052146 0.465282
0.268002 0.052146 0.558357
0.053053 0.052146 0.372206
0.160528 0.052146 0.372206
0.106791 0.052146 0.465282
-0.108158 0.052146 0.279131
-0.000684 0.052146 0.279131
-0.054421 0.052146 0.372206
-0.269369 0.052146 0.186056
-0.161895 0.052146 0.186056
-0.215632 0.052146 0.279131
-0.430581 0.052146 0.092980
-0.323106 0.052146 0.092980
-0.376843 0.052146 0.186056
-0.591792 0.052146 -0.000095
-0.484318 0.052146 -0.000095
-0.538055 0.052146 0.092980
-0.753003 0.052146 -0.093171
-0.645529 0.052146 -0.093171
-0.699266 0.052146 -0.000095
-0.914214 0.052146 -0.186246
-0.806740 0.052146 -0.186246
-0.860478 0.052146 -0.093171
-0.967952 0.052146 -0.279322
0.373649 0.052146 0.744601
0.481123 0.052146 0.744601
0.534860 0.052146 0.837677
0.427386 0.052146 0.837677
0.212438 0.052146 0.651526
0.319912 0.052146 0.651526
0.266175 0.052146 0.744601
0.051226 0.052146 0.558450
0.158701 0.052146 0.558450
0.104963 0.052146 0.651526
-0.109985 0.052146 0.465375
-0.002511 0.052146 0.465375
-0.056248 0.052146 0.558450
-0.271196 0.052146 0.372300
-0.163722 0.052146 0.372300
-0.217459 0.052146 0.465375
-0.432408 0.052146 0.279224
-0.324933 0.052146 0.279224
-0.378671 0.052146 0.372300
-0.593619 0.052146 0.186149
-0.486145 0.052146 0.186149
-0.539882 0.052146 0.279224
-0.754830 0.052146 0.093073
-0.647356 0.052146 0.093073
-0.701093 0.052146 0.186149
-0.916042 0.052146 -0.000002
-0.808567 0.052146 -0.000002
-0.862304 0.052146 0.093073
-0.969779 0.052146 -0.093078
0.210611 0.052146 0.837770
0.318085 0.052146 0.837770
0.371822 0.052146 0.930845
0.264348 0.052146 0.930845
0.049399 0.052146 0.744694
0.156874 0.052146 0.744694
0.103137 0.052146 0.837770
-0.111812 0.052146 0.651619
-0.004338 0.052146 0.651619
-0.058075 0.052146 0.744694
-0.273023 0.052146 0.558544
-0.165549 0.052146 0.558544
-0.219286 0.052146 0.651619
-0.434235 0.052146 0.465468
-0.326761 0.052146 0.465468
-0.380497 0.052146 0.558544
-0.595446 0.052146 0.372393
-0.487972 0.052146 0.372393
-0.541709 0.052146 0.465468
-0.756657 0.052146 0.279317
-0.649183 0.052146 0.279317
-0.702920 0.052146 0.372393
-0.917869 0.052146 0.186242
-0.810394 0.052146 0.186242
-0.864132 0.052146 0.279317
-0.971606 0.052146 0.093166
0.047572 0.052146 0.930939
0.155047 0.052146 0.930939
0.208784 0.052146 1.024014
0.101309 0.052146 1.024014
-0.113639 0.052146 0.837863
-0.006165 0.052146 0.837863
-0.059902 0.052146 0.930939
-0.274850 0.052146 0.744788
-0.167376 0.052146 0.744788
-0.221113 0.052146 0.837863
-0.436062 0.052146 0.651712
-0.328587 0.052146 0.651712
-0.382325 0.052146 0.744788
-0.597273 0.052146 0.558637
-0.489799 0.052146 0.558637
-0.543536 0.052146 0.651712
-0.758484 0.052146 0.465561
-0.651010 0.052146 0.465561
-0.704747 0.052146 0.558637
-0.919696 0.052146 0.372486
-0.812221 0.052146 0.372486
-0.865959 0.052146 0.465561
-0.973433 0.052146 0.279410
-0.115466 0.052146 1.024107
-0.007992 0.052146 1.024107
-0.276677 0.052146 0.931032
-0.169203 0.052146 0.931032
-0.222940 0.052146 1.024107
-0.437889 0.052146 0.837956
-0.330415 0.052146 0.837956
-0.384152 0.052146 0.931032
-0.599100 0.052146 0.744881
-0.491626 0.052146 0.744881
-0.545363 0.052146 0.837956
-0.760311 0.052146 0.651805
-0.652837 0.052146 0.651805
-0.706574 0.052146 0.744881
-0.814049 0.052146 0.558730
-0.844771 -0.285544 0.242544
-0.798118 -0.306630 0.323350
-0.177347 -0.166946 -0.889471
-0.840013 -0.292313 -0.242536
-0.841599 -0.327196 -0.080843
0.654484 -0.297635 0.565445
0.701138 -0.316449 0.484639
0.104160 -0.166946 -0.889551
0.010853 -0.166946 -0.889551
-0.843185 -0.325544 0.080850
0.710655 -0.307595 -0.485520
-0.082454 -0.166946 -0.889551
0.606245 -0.259947 0.646332
-0.601987 -0.258135 -0.646810
-0.648640 -0.297635 -0.566003
-0.613090 -0.242439 0.646655
-0.473130 -0.273983 0.727462
0.749377 -0.320888 0.403752
-0.659744 -0.286397 0.565849
0.088298 -0.166946 0.888993
-0.333170 -0.249022 0.808268
0.664002 -0.288101 -0.566327
-0.193209 -0.166946 0.889074
0.197467 -0.166946 -0.889551
0.849029 -0.288001 -0.243021
0.803962 -0.306630 -0.323908
0.181605 -0.166946 0.888993
0.323151 -0.259576 0.808106
-0.706397 -0.305732 0.485043
-0.099902 -0.166946 0.889074
-0.006595 -0.166946 0.889074
0.464698 -0.285039 0.727219
0.617348 -0.244933 -0.647133
0.477388 -0.275358 -0.727939
-0.791773 -0.313529 -0.323423
-0.751464 -0.313211 0.404156
0.337427 -0.249989 -0.808745
-0.696880 -0.315107 -0.485116
-0.743533 -0.320888 -0.404310
0.844270 -0.294285 0.242059
0.845857 -0.328763 0.080366
0.847443 -0.327147 -0.081328
-0.318894 -0.258771 -0.808584
0.797617 -0.313529 0.322865
-0.460440 -0.284014 -0.727697
0.757308 -0.313210 -0.404714
0.617348 -0.373784 -0.485520
0.664002 -0.381747 -0.404714
0.477388 -0.398662 -0.566327
0.524041 -0.326911 -0.647133
0.570695 -0.356503 -0.566327
0.524041 -0.416523 -0.485520
0.337427 -0.399593 -0.647133
0.384081 -0.328257 -0.727939
0.430734 -0.370914 -0.647133
0.384081 -0.427638 -0.566327
0.197467 -0.376895 -0.727939
0.244120 -0.293339 -0.808745
0.290774 -0.358769 -0.727939
0.244120 -0.418249 -0.647133
0.057507 -0.320420 -0.808745
0.150813 -0.313612 -0.808745
0.104160 -0.385734 -0.727939
-0.035800 -0.320420 -0.808745
0.755722 -0.373909 -0.243021
0.802376 -0.355996 -0.162215
0.615762 -0.430337 -0.323827
0.709069 -0.382433 -0.323827
0.662415 -0.426793 -0.243021
0.475801 -0.459244 -0.404633
0.569108 -0.427209 -0.404633
0.522455 -0.464977 -0.323827
0.335841 -0.468646 -0.485440
0.429148 -0.447233 -0.485440
0.382494 -0.482615 -0.404633
0.195881 -0.460425 -0.566246
0.289188 -0.447849 -0.566246
0.242534 -0.483162 -0.485440
0.055920 -0.432950 -0.647052
0.149227 -0.429194 -0.647052
0.102574 -0.466712 -0.566246
-0.084040 -0.386408 -0.727858
0.009267 -0.386408 -0.727858
-0.037387 -0.432950 -0.647052
-0.224001 -0.297616 -0.808664
-0.130694 -0.315527 -0.808664
-0.177347 -0.378862 -0.727858
0.754136 -0.398861 -0.081328
0.800789 -0.370609 -0.000521
0.614175 -0.459313 -0.162134
0.707482 -0.417141 -0.162134
0.660829 -0.446967 -0.081328
0.474215 -0.493587 -0.242940
0.567522 -0.465362 -0.242940
0.520869 -0.490777 -0.162134
0.334255 -0.509629 -0.323746
0.427562 -0.491028 -0.323746
0.380908 -0.514571 -0.242940
0.194294 -0.510007 -0.404553
0.287601 -0.499403 -0.404553
0.240948 -0.522392 -0.323746
0.054334 -0.494776 -0.485359
0.147641 -0.491827 -0.485359
0.100988 -0.515316 -0.404553
-0.085626 -0.467095 -0.566165
0.007681 -0.467095 -0.566165
-0.038973 -0.494776 -0.485359
-0.225587 -0.420231 -0.646971
-0.132280 -0.430032 -0.646971
-0.178933 -0.461522 -0.566165
-0.365547 -0.333496 -0.727778
-0.272240 -0.361982 -0.727778
-0.318894 -0.402742 -0.646971
0.752550 -0.399852 0.080366
0.799203 -0.358590 0.161172
0.612589 -0.468761 -0.000441
0.705896 -0.428232 -0.000441
0.659243 -0.447683 0.080366
0.472629 -0.509671 -0.081247
0.565936 -0.482981 -0.081247
0.519282 -0.499242 -0.000441
0.332669 -0.532118 -0.162053
0.425976 -0.514807 -0.162053
0.379322 -0.529644 -0.081247
0.192708 -0.539455 -0.242859
0.286015 -0.529794 -0.242859
0.239362 -0.544042 -0.162053
0.052748 -0.532591 -0.323665
0.146055 -0.530032 -0.323665
0.099401 -0.544271 -0.242859
-0.087213 -0.515552 -0.404472
0.006094 -0.515552 -0.404472
-0.040559 -0.532591 -0.323665
-0.227173 -0.484346 -0.485278
-0.133866 -0.492312 -0.485278
-0.180520 -0.510679 -0.404472
-0.367133 -0.430538 -0.566084
-0.273826 -0.449506 -0.566084
-0.320480 -0.470474 -0.485278
-0.507094 -0.333501 -0.646890
-0.413787 -0.375127 -0.646890
-0.460440 -0.402803 -0.566084
0.750964 -0.377223 0.242059
0.611003 -0.460572 0.161253
0.704310 -0.418846 0.161253
0.657657 -0.429101 0.242059
0.471043 -0.510074 0.080446
0.564350 -0.483512 0.080446
0.517696 -0.491731 0.161253
0.331082 -0.539478 -0.000360
0.424389 -0.522609 -0.000360
0.377736 -0.529944 0.080446
0.191122 -0.553397 -0.081166
0.284429 -0.544172 -0.081166
0.237775 -0.551096 -0.000360
0.051162 -0.553509 -0.161972
0.144468 -0.551166 -0.161972
0.097815 -0.557966 -0.081166
-0.088799 -0.544402 -0.242778
0.004508 -0.544402 -0.242778
-0.042145 -0.553509 -0.161972
-0.228759 -0.523094 -0.323585
-0.135452 -0.530294 -0.323585
-0.182106 -0.539826 -0.242778
-0.368719 -0.484330 -0.404391
-0.275413 -0.500340 -0.404391
-0.322066 -0.510704 -0.323585
-0.508680 -0.420215 -0.485197
-0.415373 -0.449441 -0.485197
-0.462027 -0.461600 -0.404391
-0.555333 -0.361822 -0.566003
-0.601987 -0.379065 -0.485197
0.609417 -0.433123 0.322946
0.702724 -0.386371 0.322946
0.656070 -0.386371 0.403752
0.469457 -0.494854 0.242140
0.562764 -0.467046 0.242140
0.516110 -0.467046 0.322946
0.329496 -0.532623 0.161333
0.422803 -0.515507 0.161333
0.376150 -0.515507 0.242140
0.189536 -0.553517 0.080527
0.282843 -0.544373 0.080527
0.236189 -0.544373 0.161333
0.049575 -0.560235 -0.000279
0.142882 -0.558008 -0.000279
0.096229 -0.558008 0.080527
-0.090385 -0.558008 -0.081085
0.002922 -0.558008 -0.081085
-0.043731 -0.560235 -0.000279
-0.230345 -0.544373 -0.161891
-0.137038 -0.551251 -0.161891
-0.183692 -0.553517 -0.081085
-0.370306 -0.515507 -0.242698
-0.276999 -0.530227 -0.242698
-0.323652 -0.532623 -0.161891
-0.510266 -0.467046 -0.323504
-0.416959 -0.492181 -0.323504
-0.463613 -0.494854 -0.242698
-0.650226 -0.386371 -0.404310
-0.556920 -0.429822 -0.404310
-0.603573 -0.433123 -0.323504
0.607831 -0.379065 0.484639
0.467870 -0.461600 0.403833
0.561177 -0.430416 0.403833
0.514524 -0.420215 0.484639
0.327910 -0.510704 0.323027
0.421217 -0.492529 0.323027
0.374563 -0.484330 0.403833
0.187950 -0.539826 0.242220
0.281256 -0.530420 0.242220
0.234603 -0.523094 0.323027
0.047989 -0.553509 0.161414
0.141296 -0.551321 0.161414
0.094643 -0.544401 0.242220
-0.091971 -0.557966 0.080608
0.001336 -0.558042 0.080608
-0.045318 -0.553509 0.161414
-0.231932 -0.551096 -0.000198
-0.138625 -0.557932 -0.000198
-0.185278 -0.553397 0.080608
-0.371892 -0.529944 -0.081004
-0.278585 -0.544179 -0.081004
-0.325238 -0.539478 -0.000198
-0.511852 -0.491731 -0.161811
-0.418545 -0.515173 -0.161811
-0.465199 -0.510074 -0.081004
-0.651813 -0.429101 -0.242617
-0.558506 -0.466514 -0.242617
-0.605159 -0.460572 -0.161811
-0.698466 -0.385445 -0.323423
-0.745120 -0.377223 -0.242617
0.466284 -0.402803 0.565526
0.559591 -0.362607 0.565526
0.512938 -0.333501 0.646332
0.326324 -0.470474 0.484720
0.419631 -0.449830 0.484720
0.372977 -0.430538 0.565526
0.186363 -0.510678 0.403914
0.279670 -0.500540 0.403914
0.233017 -0.484345 0.484720
0.046403 -0.532591 0.323107
0.139710 -0.530359 0.323107
0.093057 -0.515552 0.403914
-0.093557 -0.544271 0.242301
-0.000250 -0.544428 0.242301
-0.046904 -0.532591 0.323107
-0.233518 -0.544042 0.161495
-0.140211 -0.551080 0.161495
-0.186864 -0.539455 0.242301
-0.373478 -0.529645 0.080689
-0.280171 -0.543970 0.080689
-0.326825 -0.532118 0.161495
-0.513438 -0.499242 -0.000117
-0.420132 -0.522273 -0.000117
-0.466785 -0.509671 0.080689
-0.653399 -0.447683 -0.080924
-0.560092 -0.482997 -0.080924
-0.606745 -0.468761 -0.000117
-0.793359 -0.358590 -0.161730
-0.700052 -0.418027 -0.161730
-0.746706 -0.399852 -0.080924
0.324738 -0.402742 0.646413
0.418045 -0.375640 0.646413
0.371391 -0.333496 0.727219
0.184777 -0.461522 0.565607
0.278084 -0.449731 0.565607
0.231431 -0.420231 0.646413
0.044817 -0.494775 0.484801
0.138124 -0.492375 0.484801
0.091470 -0.467095 0.565607
-0.095144 -0.515316 0.403994
-0.001837 -0.515572 0.403994
-0.048490 -0.494775 0.484801
-0.235104 -0.522392 0.323188
-0.141797 -0.529932 0.323188
-0.188451 -0.510007 0.403994
-0.375064 -0.514571 0.242382
-0.281757 -0.529575 0.242382
-0.328411 -0.509629 0.323188
-0.515025 -0.490777 0.161576
-0.421718 -0.514454 0.161576
-0.468371 -0.493587 0.242382
-0.654985 -0.446967 0.080770
-0.561678 -0.482456 0.080770
-0.608332 -0.459313 0.161576
-0.794945 -0.370609 -0.000037
-0.701639 -0.427431 -0.000037
-0.748292 -0.398861 0.080770
0.183191 -0.378862 0.727300
0.276498 -0.362293 0.727300
0.229845 -0.297616 0.808106
0.043231 -0.432950 0.646494
0.136538 -0.430098 0.646494
0.089884 -0.386408 0.727300
-0.096730 -0.466712 0.565688
-0.003423 -0.467108 0.565688
-0.050076 -0.432950 0.646494
-0.236690 -0.483162 0.484881
-0.143383 -0.491706 0.484881
-0.190037 -0.460425 0.565688
-0.376650 -0.482615 0.404075
-0.283344 -0.499154 0.404075
-0.329997 -0.468646 0.484881
-0.516611 -0.464977 0.323269
-0.423304 -0.490640 0.323269
-0.469957 -0.459244 0.404075
-0.656571 -0.426793 0.242463
-0.563264 -0.464796 0.242463
-0.609918 -0.430337 0.323269
-0.796532 -0.355996 0.161657
-0.703225 -0.416291 0.161657
-0.749878 -0.373909 0.242463
0.041644 -0.320420 0.808187
0.134951 -0.315623 0.808187
-0.098316 -0.385734 0.727381
-0.005009 -0.386411 0.727381
-0.051663 -0.320420 0.808187
-0.238276 -0.418249 0.646575
-0.144969 -0.429032 0.646575
-0.191623 -0.376895 0.727381
-0.378237 -0.427638 0.565768
-0.284930 -0.447544 0.565768
-0.331583 -0.399593 0.646575
-0.518197 -0.416523 0.484962
-0.424890 -0.446773 0.484962
-0.471544 -0.398662 0.565768
-0.658157 -0.381747 0.404156
-0.564851 -0.426547 0.404156
-0.611504 -0.373784 0.484962
-0.704811 -0.381432 0.323350
-0.239862 -0.292742 0.808268
-0.146556 -0.313301 0.808268
-0.379823 -0.327520 0.727462
-0.286516 -0.358306 0.727462
-0.519783 -0.325897 0.646655
-0.426476 -0.370266 0.646655
-0.566437 -0.355576 0.565849
3 0 1 2
3 3 1 4
3 4 1 0
3 5 6 7
3 8 7 6
3 0 6 9
3 9 6 5
3 2 8 6
3 0 2 6
3 10 11 12
3 13 12 11
3 5 11 14
3 14 11 10
3 7 13 11
3 5 7 11
3 15 16 17
3 18 17 16
3 10 16 19
3 19 16 15
3 12 18 16
3 10 12 16
3 20 21 22
3 23 22 21
3 15 21 24
3 24 21 20
3 17 23 21
3 15 17 21
3 20 25 26
3 26 25 27
3 20 22 25
3 28 29 30
3 31 29 28
3 32 33 4
3 3 4 33
3 28 33 34
3 34 33 32
3 30 3 33
3 28 30 33
3 35 36 9
3 0 9 36
3 32 36 37
3 37 36 35
3 4 0 36
3 32 4 36
3 38 39 14
3 5 14 39
3 35 39 40
3 40 39 38
3 9 5 39
3 35 9 39
3 41 42 19
3 10 19 42
3 38 42 43
3 43 42 41
3 14 10 42
3 38 14 42
3 44 45 24
3 15 24 45
3 41 45 46
3 46 45 44
3 19 15 45
3 41 19 45
3 47 48 26
3 20 26 48
3 44 48 49
3 49 48 47
3 24 20 48
3 44 24 48
3 50 51 52
3 27 52 51
3 47 51 53
3 53 51 50
3 26 27 51
3 47 26 51
3 54 55 31
3 56 55 54
3 57 58 34
3 28 34 58
3 54 58 59
3 59 58 57
3 31 28 58
3 54 31 58
3 60 61 37
3 32 37 61
3 57 61 62
3 62 61 60
3 34 32 61
3 57 34 61
3 63 64 40
3 35 40 64
3 60 64 65
3 65 64 63
3 37 35 64
3 60 37 64
3 66 67 43
3 38 43 67
3 63 67 68
3 68 67 66
3 40 38 67
3 63 40 67
3 69 70 46
3 41 46 70
3 66 70 71
3 71 70 69
3 43 41 70
3 66 43 70
3 72 73 49
3 44 49 73
3 69 73 74
3 74 73 72
3 46 44 73
3 69 46 73
3 75 76 53
3 47 53 76
3 72 76 77
3 77 76 75
3 49 47 76
3 72 49 76
3 78 79 80
3 50 80 79
3 75 79 81
3 81 79 78
3 53 50 79
3 75 53 79
3 82 83 56
3 84 83 82
3 85 86 59
3 54 59 86
3 82 86 87
3 87 86 85
3 56 54 86
3 82 56 86
3 88 89 62
3 57 62 89
3 85 89 90
3 90 89 88
3 59 57 89
3 85 59 89
3 91 92 65
3 60 65 92
3 88 92 93
3 93 92 91
3 62 60 92
3 88 62 92
3 94 95 68
3 63 68 95
3 91 95 96
3 96 95 94
3 65 63 95
3 91 65 95
3 97 98 71
3 66 71 98
3 94 98 99
3 99 98 97
3 68 66 98
3 94 68 98
3 100 101 74
3 69 74 101
3 97 101 102
3 102 101 100
3 71 69 101
3 97 71 101
3 103 104 77
3 72 77 104
3 100 104 105
3 105 104 103
3 74 72 104
3 100 74 104
3 106 107 81
3 75 81 107
3 103 107 108
3 108 107 106
3 77 75 107
3 103 77 107
3 109 110 111
3 78 111 110
3 106 110 112
3 112 110 109
3 81 78 110
3 106 81 110
3 113 114 84
3 115 114 113
3 116 117 87
3 82 87 117
3 113 117 118
3 118 117 116
3 84 82 117
3 113 84 117
3 119 120 90
3 85 90 120
3 116 120 121
3 121 120 119
3 87 85 120
3 116 87 120
3 122 123 93
3 88 93 123
3 119 123 124
3 124 123 122
3 90 88 123
3 119 90 123
3 125 126 96
3 91 96 126
3 122 126 127
3 127 126 125
3 93 91 126
3 122 93 126
3 128 129 99
3 94 99 129
3 125 129 130
3 130 129 128
3 96 94 129
3 125 96 129
3 131 132 102
3 97 102 132
3 128 132 133
3 133 132 131
3 99 97 132
3 128 99 132
3 134 135 105
3 100 105 135
3 131 135 136
3 136 135 134
3 102 100 135
3 131 102 135
3 137 138 108
3 103 108 138
3 134 138 139
3 139 138 137
3 105 103 138
3 134 105 138
3 140 141 112
3 106 112 141
3 137 141 142
3 142 141 140
3 108 106 141
3 137 108 141
3 143 144 145
3 109 145 144
3 140 144 146
3 146 144 143
3 112 109 144
3 140 112 144
3 147 148 118
3 113 118 148
3 149 148 150
3 150 148 147
3 115 113 148
3 149 115 148
3 151 152 121
3 116 121 152
3 147 152 153
3 153 152 151
3 118 116 152
3 147 118 152
3 154 155 124
3 119 124 155
3 151 155 156
3 156 155 154
3 121 119 155
3 151 121 155
3 157 158 127
3 122 127 158
3 154 158 159
3 159 158 157
3 124 122 158
3 154 124 158
3 160 161 130
3 125 130 161
3 157 161 162
3 162 161 160
3 127 125 161
3 157 127 161
3 163 164 133
3 128 133 164
3 160 164 165
3 165 164 163
3 130 128 164
3 160 130 164
3 166 167 136
3 131 136 167
3 163 167 168
3 168 167 166
3 133 131 167
3 163 133 167
3 169 170 139
3 134 139 170
3 166 170 171
3 171 170 169
3 136 134 170
3 166 136 170
3 172 173 142
3 137 142 173
3 169 173 174
3 174 173 172
3 139 137 173
3 169 139 173
3 175 176 146
3 140 146 176
3 172 176 177
3 177 176 175
3 142 140 176
3 172 142 176
3 175 178 179
3 146 143 178
3 175 146 178
3 180 181 150
3 149 150 181
3 182 181 180
3 183 184 153
3 147 153 184
3 180 184 185
3 185 184 183
3 150 147 184
3 180 150 184
3 186 187 156
3 151 156 187
3 183 187 188
3 188 187 186
3 153 151 187
3 183 153 187
3 189 190 159
3 154 159 190
3 186 190 191
3 191 190 189
3 156 154 190
3 186 156 190
3 192 193 162
3 157 162 193
3 189 193 194
3 194 193 192
3 159 157 193
3 189 159 193
3 195 196 165
3 160 165 196
3 192 196 197
3 197 196 195
3 162 160 196
3 192 162 196
3 198 199 168
3 163 168 199
3 195 199 200
3 200 199 198
3 165 163 199
3 195 165 199
3 201 202 171
3 166 171 202
3 198 202 203
3 203 202 201
3 168 166 202
3 198 168 202
3 204 205 174
3 169 174 205
3 201 205 206
3 206 205 204
3 171 169 205
3 201 171 205
3 207 208 177
3 172 177 208
3 204 208 209
3 209 208 207
3 174 172 208
3 204 174 208
3 210 211 179
3 175 179 211
3 207 211 212
3 212 211 210
3 177 175 211
3 207 177 211
3 213 214 185
3 180 185 214
3 215 214 216
3 216 214 213
3 182 180 214
3 215 182 214
3 217 218 188
3 183 188 218
3 213 218 219
3 219 218 217
3 185 183 218
3 213 185 218
3 220 221 191
3 186 191 221
3 217 221 222
3 222 221 220
3 188 186 221
3 217 188 221
3 223 224 194
3 189 194 224
3 220 224 225
3 225 224 223
3 191 189 224
3 220 191 224
3 226 227 197
3 192 197 227
3 223 227 228
3 228 227 226
3 194 192 227
3 223 194 227
3 229 230 200
3 195 200 230
3 226 230 231
3 231 230 229
3 197 195 230
3 226 197 230
3 232 233 203
3 198 203 233
3 229 233 234
3 234 233 232
3 200 198 233
3 229 200 233
3 235 236 206
3 201 206 236
3 232 236 237
3 237 236 235
3 203 201 236
3 232 203 236
3 238 239 209
3 204 209 239
3 235 239 240
3 240 239 238
3 206 204 239
3 235 206 239
3 241 242 212
3 207 212 242
3 238 242 243
3 243 242 241
3 209 207 242
3 238 209 242
3 212 210 244
3 241 212 244
3 245 246 219
3 213 219 246
3 247 246 248
3 248 246 245
3 216 213 246
3 247 216 246
3 249 250 222
3 217 222 250
3 245 250 251
3 251 250 249
3 219 217 250
3 245 219 250
3 252 253 225
3 220 225 253
3 249 253 254
3 254 253 252
3 222 220 253
3 249 222 253
3 255 256 228
3 223 228 256
3 252 256 257
3 257 256 255
3 225 223 256
3 252 225 256
3 258 259 231
3 226 231 259
3 255 259 260
3 260 259 258
3 228 226 259
3 255 228 259
3 261 262 234
3 229 234 262
3 258 262 263
3 263 262 261
3 231 229 262
3 258 231 262
3 264 265 237
3 232 237 265
3 261 265 266
3 266 265 264
3 234 232 265
3 261 234 265
3 267 268 240
3 235 240 268
3 264 268 269
3 269 268 267
3 237 235 268
3 264 237 268
3 270 271 243
3 238 243 271
3 267 271 272
3 272 271 270
3 240 238 271
3 267 240 271
3 243 241 273
3 270 243 273
3 274 275 251
3 245 251 275
3 276 275 277
3 277 275 274
3 248 245 275
3 276 248 275
3 278 279 254
3 249 254 279
3 274 279 280
3 280 279 278
3 251 249 279
3 274 251 279
3 281 282 257
3 252 257 282
3 278 282 283
3 283 282 281
3 254 252 282
3 278 254 282
3 284 285 260
3 255 260 285
3 281 285 286
3 286 285 284
3 257 255 285
3 281 257 285
3 287 288 263
3 258 263 288
3 284 288 289
3 289 288 287
3 260 258 288
3 284 260 288
3 290 291 266
3 261 266 291
3 287 291 292
3 292 291 290
3 263 261 291
3 287 263 291
3 293 294 269
3 264 269 294
3 290 294 295
3 295 294 293
3 266 264 294
3 290 266 294
3 296 297 272
3 267 272 297
3 293 297 298
3 298 297 296
3 269 267 297
3 293 269 297
3 272 270 299
3 296 272 299
3 300 301 280
3 274 280 301
3 302 301 303
3 303 301 300
3 277 274 301
3 302 277 301
3 304 305 283
3 278 283 305
3 300 305 306
3 306 305 304
3 280 278 305
3 300 280 305
3 307 308 286
3 281 286 308
3 304 308 309
3 309 308 307
3 283 281 308
3 304 283 308
3 310 311 289
3 284 289 311
3 307 311 312
3 312 311 310
3 286 284 311
3 307 286 311
3 313 314 292
3 287 292 314
3 310 314 315
3 315 314 313
3 289 287 314
3 310 289 314
3 316 317 295
3 290 295 317
3 313 317 318
3 318 317 316
3 292 290 317
3 313 292 317
3 319 320 298
3 293 298 320
3 316 320 321
3 321 320 319
3 295 293 320
3 316 295 320
3 298 296 322
3 319 298 322
3 323 324 306
3 300 306 324
3 303 300 324
3 325 326 309
3 304 309 326
3 323 326 327
3 327 326 325
3 306 304 326
3 323 306 326
3 328 329 312
3 307 312 329
3 325 329 330
3 330 329 328
3 309 307 329
3 325 309 329
3 331 332 315
3 310 315 332
3 328 332 333
3 333 332 331
3 312 310 332
3 328 312 332
3 334 335 318
3 313 318 335
3 331 335 336
3 336 335 334
3 315 313 335
3 331 315 335
3 316 321 337
3 318 316 337
3 334 318 337
3 7 8 13
3 12 13 18
3 17 18 23
3 50 52 80
3 78 80 111
3 109 111 145
3 244 273 241
3 273 299 270
3 299 322 296
3 331 336 333
3 328 333 330
3 325 330 327
3 277 302 276
3 248 276 247
3 216 247 215
3 84 114 83
3 56 83 55
3 31 55 29
3 319 338 339
3 27 340 52
3 273 341 342
3 181 343 344
3 25 345 346
3 273 347 299
3 210 341 244
3 3 348 1
3 25 349 27
3 299 338 322
3 182 350 343
3 143 351 352
3 333 353 354
3 149 344 355
3 337 356 334
3 324 357 303
3 333 358 330
3 1 359 2
3 330 360 327
3 22 361 345
3 30 362 363
3 276 364 365
3 321 366 337
3 303 364 302
3 324 367 368
3 247 365 369
3 13 370 371
3 179 372 210
3 247 350 215
3 321 339 373
3 13 374 18
3 179 375 376
3 83 377 378
3 115 377 114
3 18 361 23
3 2 370 8
3 83 379 55
3 80 340 380
3 323 360 367
3 55 362 29
3 149 381 115
3 111 380 382
3 3 363 383
3 334 353 336
3 111 351 145
3 178 352 375
3 384 359 348
3 383 385 348
3 385 384 348
3 386 387 388
3 370 388 387
3 384 389 388
3 389 386 388
3 359 388 370
3 384 388 359
3 390 391 392
3 371 392 391
3 386 393 392
3 393 390 392
3 387 392 371
3 386 392 387
3 394 395 396
3 374 396 395
3 390 397 396
3 397 394 396
3 391 396 374
3 390 396 391
3 398 345 399
3 361 399 345
3 394 400 399
3 400 398 399
3 395 399 361
3 394 399 395
3 398 401 346
3 401 349 346
3 398 346 345
3 402 363 362
3 403 402 362
3 404 385 405
3 383 405 385
3 402 406 405
3 406 404 405
3 363 405 383
3 402 405 363
3 407 389 408
3 384 408 389
3 404 409 408
3 409 407 408
3 385 408 384
3 404 408 385
3 410 393 411
3 386 411 393
3 407 412 411
3 412 410 411
3 389 411 386
3 407 411 389
3 413 397 414
3 390 414 397
3 410 415 414
3 415 413 414
3 393 414 390
3 410 414 393
3 416 400 417
3 394 417 400
3 413 418 417
3 418 416 417
3 397 417 394
3 413 417 397
3 419 401 420
3 398 420 401
3 416 421 420
3 421 419 420
3 400 420 398
3 416 420 400
3 422 340 423
3 349 423 340
3 419 424 423
3 424 422 423
3 401 423 349
3 419 423 401
3 425 403 379
3 426 425 379
3 427 406 428
3 402 428 406
3 425 429 428
3 429 427 428
3 403 428 402
3 425 428 403
3 430 409 431
3 404 431 409
3 427 432 431
3 432 430 431
3 406 431 404
3 427 431 406
3 433 412 434
3 407 434 412
3 430 435 434
3 435 433 434
3 409 434 407
3 430 434 409
3 436 415 437
3 410 437 415
3 433 438 437
3 438 436 437
3 412 437 410
3 433 437 412
3 439 418 440
3 413 440 418
3 436 441 440
3 441 439 440
3 415 440 413
3 436 440 415
3 442 421 443
3 416 443 421
3 439 444 443
3 444 442 443
3 418 443 416
3 439 443 418
3 445 424 446
3 419 446 424
3 442 447 446
3 447 445 446
3 421 446 419
3 442 446 421
3 448 380 449
3 422 449 380
3 445 450 449
3 450 448 449
3 424 449 422
3 445 449 424
3 451 426 378
3 452 451 378
3 453 429 454
3 425 454 429
3 451 455 454
3 455 453 454
3 426 454 425
3 451 454 426
3 456 432 457
3 427 457 432
3 453 458 457
3 458 456 457
3 429 457 427
3 453 457 429
3 459 435 460
3 430 460 435
3 456 461 460
3 461 459 460
3 432 460 430
3 456 460 432
3 462 438 463
3 433 463 438
3 459 464 463
3 464 462 463
3 435 463 433
3 459 463 435
3 465 441 466
3 436 466 441
3 462 467 466
3 467 465 466
3 438 466 436
3 462 466 438
3 468 444 469
3 439 469 444
3 465 470 469
3 470 468 469
3 441 469 439
3 465 469 441
3 471 447 472
3 442 472 447
3 468 473 472
3 473 471 472
3 444 472 442
3 468 472 444
3 474 450 475
3 445 475 450
3 471 476 475
3 476 474 475
3 447 475 445
3 471 475 447
3 477 382 478
3 448 478 382
3 474 479 478
3 479 477 478
3 450 478 448
3 474 478 450
3 480 452 377
3 381 480 377
3 481 455 482
3 451 482 455
3 480 483 482
3 483 481 482
3 452 482 451
3 480 482 452
3 484 458 485
3 453 485 458
3 481 486 485
3 486 484 485
3 455 485 453
3 481 485 455
3 487 461 488
3 456 488 461
3 484 489 488
3 489 487 488
3 458 488 456
3 484 488 458
3 490 464 491
3 459 491 464
3 487 492 491
3 492 490 491
3 461 491 459
3 487 491 461
3 493 467 494
3 462 494 467
3 490 495 494
3 495 493 494
3 464 494 462
3 490 494 464
3 496 470 497
3 465 497 470
3 493 498 497
3 498 496 497
3 467 497 465
3 493 497 467
3 499 473 500
3 468 500 473
3 496 501 500
3 501 499 500
3 470 500 468
3 496 500 470
3 502 476 503
3 471 503 476
3 499 504 503
3 504 502 503
3 473 503 471
3 499 503 473
3 505 479 506
3 474 506 479
3 502 507 506
3 507 505 506
3 476 506 474
3 502 506 476
3 352 351 508
3 477 508 351
3 505 509 508
3 509 352 508
3 479 508 477
3 505 508 479
3 510 483 511
3 480 511 483
3 355 512 511
3 512 510 511
3 381 511 480
3 355 511 381
3 513 486 514
3 481 514 486
3 510 515 514
3 515 513 514
3 483 514 481
3 510 514 483
3 516 489 517
3 484 517 489
3 513 518 517
3 518 516 517
3 486 517 484
3 513 517 486
3 519 492 520
3 487 520 492
3 516 521 520
3 521 519 520
3 489 520 487
3 516 520 489
3 522 495 523
3 490 523 495
3 519 524 523
3 524 522 523
3 492 523 490
3 519 523 492
3 525 498 526
3 493 526 498
3 522 527 526
3 527 525 526
3 495 526 493
3 522 526 495
3 528 501 529
3 496 529 501
3 525 530 529
3 530 528 529
3 498 529 496
3 525 529 498
3 531 504 532
3 499 532 504
3 528 533 532
3 533 531 532
3 501 532 499
3 528 532 501
3 534 507 535
3 502 535 507
3 531 536 535
3 536 534 535
3 504 535 502
3 531 535 504
3 537 509 538
3 505 538 509
3 534 539 538
3 539 537 538
3 507 538 505
3 534 538 507
3 537 376 375
3 509 375 352
3 537 375 509
3 540 512 344
3 355 344 512
3 343 540 344
3 541 515 542
3 510 542 515
3 540 543 542
3 543 541 542
3 512 542 510
3 540 542 512
3 544 518 545
3 513 545 518
3 541 546 545
3 546 544 545
3 515 545 513
3 541 545 515
3 547 521 548
3 516 548 521
3 544 549 548
3 549 547 548
3 518 548 516
3 544 548 518
3 550 524 551
3 519 551 524
3 547 552 551
3 552 550 551
3 521 551 519
3 547 551 521
3 553 527 554
3 522 554 527
3 550 555 554
3 555 553 554
3 524 554 522
3 550 554 524
3 556 530 557
3 525 557 530
3 553 558 557
3 558 556 557
3 527 557 525
3 553 557 527
3 559 533 560
3 528 560 533
3 556 561 560
3 561 559 560
3 530 560 528
3 556 560 530
3 562 536 563
3 531 563 536
3 559 564 563
3 564 562 563
3 533 563 531
3 559 563 533
3 565 539 566
3 534 566 539
3 562 567 566
3 567 565 566
3 536 566 534
3 562 566 536
3 372 376 568
3 537 568 376
3 565 569 568
3 569 372 568
3 539 568 537
3 565 568 539
3 570 543 571
3 540 571 543
3 350 572 571
3 572 570 571
3 343 571 540
3 350 571 343
3 573 546 574
3 541 574 546
3 570 575 574
3 575 573 574
3 543 574 541
3 570 574 543
3 576 549 577
3 544 577 549
3 573 578 577
3 578 576 577
3 546 577 544
3 573 577 546
3 579 552 580
3 547 580 552
3 576 581 580
3 581 579 580
3 549 580 547
3 576 580 549
3 582 555 583
3 550 583 555
3 579 584 583
3 584 582 583
3 552 583 550
3 579 583 552
3 585 558 586
3 553 586 558
3 582 587 586
3 587 585 586
3 555 586 553
3 582 586 555
3 588 561 589
3 556 589 561
3 585 590 589
3 590 588 589
3 558 589 556
3 585 589 558
3 591 564 592
3 559 592 564
3 588 593 592
3 593 591 592
3 561 592 559
3 588 592 561
3 594 567 595
3 562 595 567
3 591 596 595
3 596 594 595
3 564 595 562
3 591 595 564
3 597 569 598
3 565 598 569
3 594 599 598
3 599 597 598
3 567 598 565
3 594 598 567
3 569 341 372
3 597 341 569
3 600 575 601
3 570 601 575
3 369 602 601
3 602 600 601
3 572 601 570
3 369 601 572
3 603 578 604
3 573 604 578
3 600 605 604
3 605 603 604
3 575 604 573
3 600 604 575
3 606 581 607
3 576 607 581
3 603 608 607
3 608 606 607
3 578 607 576
3 603 607 578
3 609 584 610
3 579 610 584
3 606 611 610
3 611 609 610
3 581 610 579
3 606 610 581
3 612 587 613
3 582 613 587
3 609 614 613
3 614 612 613
3 584 613 582
3 609 613 584
3 615 590 616
3 585 616 590
3 612 617 616
3 617 615 616
3 587 616 585
3 612 616 587
3 618 593 619
3 588 619 593
3 615 620 619
3 620 618 619
3 590 619 588
3 615 619 590
3 621 596 622
3 591 622 596
3 618 623 622
3 623 621 622
3 593 622 591
3 618 622 593
3 624 599 625
3 594 625 599
3 621 626 625
3 626 624 625
3 596 625 594
3 621 625 596
3 599 342 597
3 624 342 599
3 627 605 628
3 600 628 605
3 365 629 628
3 629 627 628
3 602 628 600
3 365 628 602
3 630 608 631
3 603 631 608
3 627 632 631
3 632 630 631
3 605 631 603
3 627 631 605
3 633 611 634
3 606 634 611
3 630 635 634
3 635 633 634
3 608 634 606
3 630 634 608
3 636 614 637
3 609 637 614
3 633 638 637
3 638 636 637
3 611 637 609
3 633 637 611
3 639 617 640
3 612 640 617
3 636 641 640
3 641 639 640
3 614 640 612
3 636 640 614
3 642 620 643
3 615 643 620
3 639 644 643
3 644 642 643
3 617 643 615
3 639 643 617
3 645 623 646
3 618 646 623
3 642 647 646
3 647 645 646
3 620 646 618
3 642 646 620
3 648 626 649
3 621 649 626
3 645 650 649
3 650 648 649
3 623 649 621
3 645 649 623
3 626 347 624
3 648 347 626
3 651 632 652
3 627 652 632
3 364 357 652
3 357 651 652
3 629 652 627
3 364 652 629
3 653 635 654
3 630 654 635
3 651 655 654
3 655 653 654
3 632 654 630
3 651 654 632
3 656 638 657
3 633 657 638
3 653 658 657
3 658 656 657
3 635 657 633
3 653 657 635
3 659 641 660
3 636 660 641
3 656 661 660
3 661 659 660
3 638 660 636
3 656 660 638
3 662 644 663
3 639 663 644
3 659 664 663
3 664 662 663
3 641 663 639
3 659 663 641
3 665 647 666
3 642 666 647
3 662 667 666
3 667 665 666
3 644 666 642
3 662 666 644
3 339 650 668
3 645 668 650
3 665 373 668
3 373 339 668
3 647 668 645
3 665 668 647
3 650 338 648
3 339 338 650
3 367 655 368
3 651 368 655
3 357 368 651
3 669 658 670
3 653 670 658
3 367 360 670
3 360 669 670
3 655 670 653
3 367 670 655
3 671 661 672
3 656 672 661
3 669 358 672
3 358 671 672
3 658 672 656
3 669 672 658
3 673 664 674
3 659 674 664
3 671 354 674
3 354 673 674
3 661 674 659
3 671 674 661
3 356 667 675
3 662 675 667
3 673 353 675
3 353 356 675
3 664 675 662
3 673 675 664
3 665 366 373
3 667 366 665
3 356 366 667
3 387 371 370
3 391 374 371
3 395 361 374
3 422 380 340
3 448 382 380
3 477 351 382
3 341 597 342
3 342 624 347
3 347 648 338
3 673 354 353
3 671 358 354
3 669 360 358
3 629 365 364
3 602 369 365
3 572 350 369
3 452 378 377
3 426 379 378
3 403 362 379
3 319 322 338
3 27 349 340
3 273 244 341
3 181 182 343
3 25 22 345
3 273 342 347
3 210 372 341
3 3 383 348
3 25 346 349
3 299 347 338
3 182 215 350
3 143 145 351
3 333 336 353
3 149 181 344
3 337 366 356
3 324 368 357
3 333 354 358
3 1 348 359
3 330 358 360
3 22 23 361
3 30 29 362
3 276 302 364
3 321 373 366
3 303 357 364
3 324 323 367
3 247 276 365
3 13 8 370
3 179 376 372
3 247 369 350
3 321 319 339
3 13 371 374
3 179 178 375
3 83 114 377
3 115 381 377
3 18 374 361
3 2 359 370
3 83 378 379
3 80 52 340
3 323 327 360
3 55 379 362
3 149 355 381
3 111 80 380
3 3 30 363
3 334 356 353
3 111 382 351
3 178 143 352
