ply
format ascii 1.0
comment Created by Blender 3.1.0 - www.blender.org
element vertex 116
property float x
property float y
property float z
property float nx
property float ny
property float nz
element face 192
property list uchar uint vertex_indices
end_header
-0.006113 0.032629 0.026317 -0.900884 -0.241960 0.360366
-0.004776 0.034937 0.033283 -0.836395 0.072610 0.543296
-0.005321 0.038655 0.029964 -0.717743 -0.086395 0.690928
-0.003139 0.025044 0.025176 -0.559268 -0.119818 0.820282
-0.000515 0.028338 0.027168 0.000000 -0.587517 0.809212
-0.000515 0.030379 0.030576 -0.000000 -0.968153 0.250359
-0.002365 0.030980 0.035903 -0.573445 -0.523746 0.629961
-0.003793 0.031303 0.030207 -0.648090 -0.727329 0.225770
-0.000515 0.029072 -0.023159 -0.000000 0.207386 -0.978259
-0.010094 0.034306 -0.017815 -0.622212 0.646289 -0.441772
-0.000515 0.036441 -0.018299 0.000000 0.834231 -0.551415
-0.008096 0.036046 0.010736 -0.684092 0.729335 -0.009447
-0.010458 0.030127 0.017632 -0.883079 0.350644 0.311802
-0.006641 0.037442 0.019387 -0.703839 0.690606 -0.166358
-0.000515 0.010801 -0.001709 -0.000000 -0.999589 -0.028649
-0.005114 0.015297 -0.020997 0.393038 -0.258630 -0.882401
-0.000515 0.018984 -0.021956 -0.000001 -0.377978 -0.925814
-0.005466 0.015297 0.022771 -0.230477 -0.554002 0.799977
-0.006621 0.007842 0.013580 0.677622 -0.477781 -0.559065
-0.005466 0.013376 0.007441 -0.543594 -0.819602 -0.180991
-0.011539 0.029773 -0.008098 -0.942755 0.280609 0.180200
-0.006860 0.037874 -0.005103 -0.602288 0.798260 0.005543
-0.000515 0.013774 0.020841 -0.000000 -0.875381 0.483433
-0.010270 0.025752 0.006752 -0.944873 0.006345 -0.327375
-0.012912 0.024509 0.019032 -0.883817 0.074294 0.461896
-0.012367 0.027203 -0.019805 -0.781432 0.166334 -0.601412
-0.010930 0.025338 -0.002886 -0.977669 -0.013053 0.209747
-0.012692 0.015948 -0.009007 -0.842472 -0.341395 0.416762
-0.005226 0.013062 -0.006672 -0.419514 -0.879754 0.223697
-0.006823 0.006890 -0.013915 0.612904 -0.570023 0.547195
-0.007596 0.006583 -0.016887 -0.038695 -0.798974 -0.600119
-0.006823 0.000000 -0.013915 0.517277 -0.000000 0.855818
-0.007596 0.000000 -0.016887 -0.067306 0.000000 -0.997732
-0.012630 0.014623 -0.019795 -0.784873 -0.235236 -0.573269
-0.013061 0.025338 0.009725 -0.934529 0.049394 -0.352444
-0.004031 0.040859 0.024722 0.986966 0.008429 0.160710
-0.008853 0.039724 0.023314 -0.667661 -0.689689 0.280282
-0.011078 0.042040 0.019723 -0.759168 0.103982 -0.642536
-0.004843 0.040427 0.025259 0.212284 -0.446437 0.869269
-0.000515 0.037219 0.018695 0.000000 0.896054 -0.443946
-0.005362 0.012242 -0.022277 0.498853 -0.237141 -0.833612
-0.007842 0.005914 -0.014841 -0.921225 -0.208018 0.328744
-0.003942 0.030766 -0.023658 -0.924738 -0.237363 -0.297522
-0.000515 0.034637 -0.022896 -0.000000 0.813738 -0.581232
-0.000515 0.028869 -0.025426 -0.000000 -0.646273 -0.763106
-0.007562 0.007471 0.016414 -0.010392 -0.385896 0.922484
-0.008749 0.008644 0.014025 -0.916033 -0.314081 -0.249472
-0.003202 0.034494 -0.020300 -0.737079 0.479502 0.476227
-0.000515 0.034570 -0.019559 0.000001 0.486599 0.873625
-0.000515 0.029511 -0.021868 0.000000 -0.803388 0.595455
-0.006267 0.040965 0.030174 -0.770037 0.301116 0.562470
-0.005098 0.037141 0.032599 -0.961484 0.043252 0.271438
-0.004327 0.036940 0.031483 0.011266 -0.235236 -0.971873
-0.004052 0.036814 0.032941 0.396589 -0.517437 0.758272
-0.000515 0.043852 0.029342 0.000000 0.881312 0.472534
-0.000515 0.040250 0.032900 0.000001 0.533945 0.845519
-0.000515 0.039417 -0.004756 0.000000 0.998530 -0.054193
-0.000515 0.044331 0.023942 0.000000 0.897405 -0.441207
-0.004431 0.044228 0.025141 -0.509995 0.844490 -0.163530
-0.000515 0.033041 0.036984 0.000000 0.112213 0.993684
0.003402 0.044228 0.025141 0.509995 0.844490 -0.163530
0.005237 0.040965 0.030174 0.770038 0.301116 0.562469
0.005612 0.037442 0.019387 0.703839 0.690605 -0.166358
0.002109 0.025044 0.025176 0.559268 -0.119819 0.820282
0.005084 0.032629 0.026317 0.900884 -0.241960 0.360366
0.001336 0.030980 0.035903 0.573445 -0.523746 0.629961
0.002763 0.031303 0.030207 0.648090 -0.727329 0.225770
0.009065 0.034306 -0.017815 0.622212 0.646289 -0.441772
0.011337 0.027203 -0.019805 0.781432 0.166333 -0.601413
0.004085 0.015297 -0.020997 -0.393039 -0.258630 -0.882401
0.004197 0.013062 -0.006672 0.419514 -0.879755 0.223696
0.004437 0.015297 0.022771 0.230477 -0.554002 0.799976
0.005592 0.007842 0.013580 -0.516677 -0.799164 0.307215
0.006533 0.007471 0.016414 -0.165243 -0.963616 -0.210093
0.010509 0.029773 -0.008098 0.942755 0.280608 0.180199
0.009901 0.025338 -0.002886 0.977669 -0.013053 0.209746
0.011663 0.015948 -0.009007 0.842472 -0.341395 0.416762
0.011600 0.014623 -0.019795 0.784873 -0.235237 -0.573270
0.004333 0.012242 -0.022277 -0.498854 -0.237141 -0.833612
0.005794 0.006890 -0.013915 -0.612904 -0.570023 0.547195
0.006812 0.005914 -0.014841 0.921225 -0.208019 0.328743
0.005794 0.000000 -0.013915 -0.517277 0.000000 0.855818
0.006812 -0.000000 -0.014841 0.937070 -0.000000 0.349142
0.006566 0.006583 -0.016887 0.038695 -0.798973 -0.600120
0.006566 -0.000000 -0.016887 0.067306 -0.000000 -0.997732
0.009241 0.025752 0.006752 0.944873 0.006345 -0.327376
0.012032 0.025338 0.009725 0.934528 0.049394 -0.352445
0.004437 0.013376 0.007441 0.543594 -0.819602 -0.180991
0.003002 0.040859 0.024722 -0.986965 0.008430 0.160711
0.007824 0.039724 0.023313 0.667662 -0.689688 0.280282
0.003813 0.040427 0.025259 -0.212283 -0.446437 0.869270
0.006524 0.043225 0.022472 0.045067 0.997706 -0.050518
0.010049 0.042040 0.019723 0.759170 0.103980 -0.642533
0.005831 0.037874 -0.005103 0.602289 0.798259 0.005543
0.002912 0.030766 -0.023658 0.924737 -0.237363 -0.297523
0.011882 0.024509 0.019032 0.883818 0.074294 0.461895
0.007720 0.008644 0.014025 0.827176 -0.554638 0.090309
0.002172 0.034494 -0.020300 0.737080 0.479502 0.476226
0.007066 0.036046 0.010736 0.684092 0.729334 -0.009448
0.009429 0.030127 0.017632 0.883079 0.350643 0.311801
-0.000515 0.029637 0.035120 0.000000 -0.959180 0.282796
0.003298 0.036940 0.031483 -0.011266 -0.235235 -0.971873
0.004068 0.037141 0.032599 0.961484 0.043252 0.271438
0.003022 0.036814 0.032941 -0.396589 -0.517437 0.758272
0.002842 0.037611 0.032422 -0.634703 0.770827 0.054575
0.003746 0.034937 0.033283 0.836396 0.072610 0.543296
0.004292 0.038655 0.029964 0.717744 -0.086394 0.690927
-0.007554 0.043225 0.022472 -0.045066 0.997706 -0.050517
-0.003872 0.037611 0.032422 0.634702 0.770827 0.054575
-0.007842 0.000000 -0.014841 -0.937070 0.000000 0.349143
0.006533 -0.000000 0.017376 0.069493 -0.120792 -0.990242
0.005592 0.000000 0.014542 0.773819 0.070488 0.629472
-0.007562 0.000000 0.017376 0.069493 0.120791 0.990242
-0.006621 0.000000 0.014542 0.773819 -0.070489 -0.629473
0.007720 -0.000000 0.014988 -0.926486 0.042610 0.373910
-0.008749 0.000000 0.014988 -0.926486 -0.042609 -0.373909
3 0 1 2
3 3 4 0
3 5 6 7
3 8 9 10
3 11 12 13
3 14 15 16
3 17 18 19
3 9 20 21
3 17 14 22
3 23 11 21
3 3 24 17
3 20 9 25
3 26 27 28
3 29 15 28
4 30 29 31 32
3 17 4 3
3 33 25 15
3 27 25 33
3 12 24 3
3 34 23 19
3 19 26 28
3 16 25 8
3 35 36 37
3 36 35 38
3 13 39 11
3 40 30 33
3 41 29 27
3 21 10 9
3 42 43 44
3 30 27 33
3 45 17 24
3 29 30 40
3 34 45 24
3 19 46 34
3 47 48 43
3 20 26 21
3 47 49 48
3 34 12 11
3 0 50 13
3 5 7 4
3 51 52 53
3 54 50 55
3 56 11 39
3 57 58 54
3 13 57 39
3 6 59 1
3 50 0 2
3 49 42 44
3 60 61 62
3 4 63 64
3 65 5 66
3 8 67 68
3 14 69 70
3 71 72 73
3 14 71 22
3 67 74 68
3 75 76 74
3 69 77 78
3 69 79 70
4 80 79 81 82
4 79 83 84 81
4 83 80 82 84
3 71 4 22
3 68 77 69
3 68 76 77
3 85 86 87
3 75 87 70
3 16 68 69
3 88 89 90
3 90 91 88
3 90 89 92
3 79 80 76
3 10 93 67
3 43 94 44
3 76 83 77
3 71 73 95
3 86 73 96
3 87 96 72
3 48 97 43
3 75 74 93
3 97 49 94
3 85 98 86
3 86 99 95
3 61 64 62
3 100 65 59
3 101 102 103
3 102 101 104
3 64 66 4
3 75 93 85
3 54 61 60
3 56 98 93
3 55 105 106
3 57 62 39
3 61 106 64
3 58 13 50
3 12 3 0
3 1 59 55
3 5 100 6
3 8 25 9
3 14 28 15
3 17 45 18
3 17 19 14
3 26 20 27
3 15 40 33
3 27 29 28
3 29 40 15
3 17 22 4
3 27 20 25
3 19 23 26
3 16 15 25
3 35 37 107
3 38 35 107
3 38 37 36
3 107 37 38
3 21 56 10
3 42 47 43
3 30 41 27
3 34 46 45
3 19 18 46
3 47 42 49
3 23 34 11
3 34 24 12
3 13 12 0
3 7 6 1
3 100 59 6
3 51 108 52
3 53 108 51
3 53 52 108
3 0 4 7
3 0 7 1
3 26 23 21
3 19 28 14
3 54 58 50
3 56 21 11
3 55 2 1
3 13 58 57
3 50 2 55
3 64 106 105
3 64 63 99
3 55 59 105
3 65 100 5
3 8 10 67
3 98 62 99
3 14 16 69
3 71 87 72
3 67 93 74
3 14 87 71
3 85 93 98
3 63 71 95
3 75 70 76
4 41 30 32 109
3 70 79 76
3 69 78 79
4 29 41 109 31
3 71 63 4
3 68 74 76
3 99 63 95
3 75 85 87
3 16 8 68
3 88 92 89
3 91 92 88
3 62 98 39
3 90 92 91
3 78 77 83
3 10 56 93
3 43 97 94
3 76 80 83
3 79 78 83
3 86 95 73
3 87 86 96
3 97 48 49
3 86 98 99
3 64 99 62
3 105 65 66
3 5 4 66
3 102 104 103
3 104 101 103
3 105 66 64
3 14 70 87
3 54 55 61
3 56 39 98
3 57 54 60
3 57 60 62
3 65 105 59
3 55 106 61
3 49 44 94
4 72 73 110 111
4 18 45 112 113
4 73 96 114 110
4 45 46 115 112
4 46 18 113 115
4 96 72 111 114
